ffmpeg version 3.4.8-0ubuntu0.2 Copyright (c) 2000-2020 the FFmpeg developers
  built with gcc 7 (Ubuntu 7.5.0-3ubuntu1~18.04)
  configuration: --prefix=/usr --extra-version=0ubuntu0.2 --toolchain=hardened --libdir=/usr/lib/x86_64-linux-gnu --incdir=/usr/include/x86_64-linux-gnu --enable-gpl --disable-stripping --enable-avresample --enable-avisynth --enable-gnutls --enable-ladspa --enable-libass --enable-libbluray --enable-libbs2b --enable-libcaca --enable-libcdio --enable-libflite --enable-libfontconfig --enable-libfreetype --enable-libfribidi --enable-libgme --enable-libgsm --enable-libmp3lame --enable-libmysofa --enable-libopenjpeg --enable-libopenmpt --enable-libopus --enable-libpulse --enable-librubberband --enable-librsvg --enable-libshine --enable-libsnappy --enable-libsoxr --enable-libspeex --enable-libssh --enable-libtheora --enable-libtwolame --enable-libvorbis --enable-libvpx --enable-libwavpack --enable-libwebp --enable-libx265 --enable-libxml2 --enable-libxvid --enable-libzmq --enable-libzvbi --enable-omx --enable-openal --enable-opengl --enable-sdl2 --enable-libdc1394 --enable-libdrm --enable-libiec61883 --enable-chromaprint --enable-frei0r --enable-libopencv --enable-libx264 --enable-shared
  libavutil      55. 78.100 / 55. 78.100
  libavcodec     57.107.100 / 57.107.100
  libavformat    57. 83.100 / 57. 83.100
  libavdevice    57. 10.100 / 57. 10.100
  libavfilter     6.107.100 /  6.107.100
  libavresample   3.  7.  0 /  3.  7.  0
  libswscale      4.  8.100 /  4.  8.100
  libswresample   2.  9.100 /  2.  9.100
  libpostproc    54.  7.100 / 54.  7.100
[rawvideo @ 0x55fcec7a6a20] Estimating duration from bitrate, this may be inaccurate
Input #0, rawvideo, from '../../SVC-Encoder-20220109T061506Z-001/SVC-Encoder/Dataset/RollerCoaster/6f_2x2/tile_yuv/f5_t1_480x480.yuv':
  Duration: 00:00:10.00, start: 0.000000, bitrate: 82944 kb/s
    Stream #0:0: Video: rawvideo (I420 / 0x30323449), yuv420p, 480x480, 82944 kb/s, 30 tbr, 30 tbn, 30 tbc
Stream mapping:
  Stream #0:0 -> #0:0 (rawvideo (native) -> h264 (libx264))
Press [q] to stop, [?] for help
[libx264 @ 0x55fcec7b3c60] using cpu capabilities: MMX2 SSE2Fast LZCNT SSSE3 SSE4.2 AVX
[libx264 @ 0x55fcec7b3c60] profile High, level 3.0
Output #0, rawvideo, to 'RollerCoaster_f5_t1_480x480_x264_QP_24.h264':
  Metadata:
    encoder         : Lavf57.83.100
    Stream #0:0: Video: h264 (libx264), yuv420p, 480x480, q=-1--1, 30 fps, 30 tbn, 30 tbc
    Metadata:
      encoder         : Lavc57.107.100 libx264
    Side data:
      cpb: bitrate max/min/avg: 0/0/0 buffer size: 0 vbv_delay: -1
frame=  128 fps=0.0 q=30.0 PSNR=Y:nan U:nan V:nan *:nan size=     141kB time=00:00:02.83 bitrate= 409.0kbits/s speed=5.64x    frame=  225 fps=224 q=30.0 PSNR=Y:nan U:nan V:nan *:nan size=     256kB time=00:00:06.06 bitrate= 345.7kbits/s speed=6.05x    frame=  300 fps=200 q=30.0 LPSNR=Y:inf U:inf V:inf *:inf size=     403kB time=00:00:09.93 bitrate= 332.0kbits/s speed=6.62x    
video:403kB audio:0kB subtitle:0kB other streams:0kB global headers:0kB muxing overhead: 0.000000%
[libx264 @ 0x55fcec7b3c60] frame I:2     Avg QP:23.18  size: 18965  PSNR Mean Y:44.58 U:49.55 V:51.97 Avg:45.82 Global:45.56
[libx264 @ 0x55fcec7b3c60] frame P:77    Avg QP:23.87  size:  3815  PSNR Mean Y:42.90 U:49.25 V:51.39 Avg:44.27 Global:44.23
[libx264 @ 0x55fcec7b3c60] frame B:221   Avg QP:29.43  size:   364  PSNR Mean Y:42.38 U:49.21 V:51.41 Avg:43.79 Global:43.78
[libx264 @ 0x55fcec7b3c60] consecutive B-frames:  1.0%  2.0%  1.0% 96.0%
[libx264 @ 0x55fcec7b3c60] mb I  I16..4: 44.9% 48.4%  6.7%
[libx264 @ 0x55fcec7b3c60] mb P  I16..4:  1.8%  0.8%  0.1%  P16..4: 23.2% 15.7% 10.3%  0.0%  0.0%    skip:48.2%
[libx264 @ 0x55fcec7b3c60] mb B  I16..4:  0.0%  0.0%  0.0%  B16..8: 21.7%  1.9%  0.2%  direct: 0.1%  skip:76.1%  L0:33.0% L1:61.5% BI: 5.4%
[libx264 @ 0x55fcec7b3c60] 8x8 transform intra:38.7% inter:55.7%
[libx264 @ 0x55fcec7b3c60] coded y,uvDC,uvAC intra: 33.8% 47.7% 7.6% inter: 6.5% 3.1% 0.0%
[libx264 @ 0x55fcec7b3c60] i16 v,h,dc,p: 43% 30% 13% 15%
[libx264 @ 0x55fcec7b3c60] i8 v,h,dc,ddl,ddr,vr,hd,vl,hu:  5% 14% 34%  9%  5%  3%  6%  6% 19%
[libx264 @ 0x55fcec7b3c60] i4 v,h,dc,ddl,ddr,vr,hd,vl,hu:  8% 13% 26% 19%  6%  7%  4%  6% 12%
[libx264 @ 0x55fcec7b3c60] i8c dc,h,v,p: 60% 24% 11%  6%
[libx264 @ 0x55fcec7b3c60] Weighted P-Frames: Y:1.3% UV:0.0%
[libx264 @ 0x55fcec7b3c60] ref P L0: 64.6% 20.3% 12.3%  2.9%  0.0%
[libx264 @ 0x55fcec7b3c60] ref B L0: 88.2% 10.1%  1.6%
[libx264 @ 0x55fcec7b3c60] ref B L1: 91.2%  8.8%
[libx264 @ 0x55fcec7b3c60] PSNR Mean Y:42.531 U:49.220 V:51.413 Avg:43.931 Global:43.897 kb/s:329.75
